<svg width="120" height="138" viewBox="0 0 120 138" fill="none" xmlns="http://www.w3.org/2000/svg">
<path d="M26.9437 89.5285C39.9536 90.4152 42.7339 90.0937 42.7339 92.7268C42.7339 98.0839 25.1759 98.1 25.1759 93.1339C25.1786 91.7705 26.0571 90.616 26.9437 89.5285V89.5285ZM34.4304 58.2857C25.7812 58.2857 25.3902 70.1973 34.2295 70.1973C42.9375 70.1973 42.7232 58.2857 34.4304 58.2857V58.2857ZM120 21.4286V115.714C120 119.124 118.645 122.394 116.234 124.806C113.823 127.217 110.553 128.571 107.143 128.571H12.8571C9.44722 128.571 6.17695 127.217 3.76577 124.806C1.35459 122.394 0 119.124 0 115.714L0 21.4286C0 18.0186 1.35459 14.7484 3.76577 12.3372C6.17695 9.926 9.44722 8.57141 12.8571 8.57141H107.143C110.553 8.57141 113.823 9.926 116.234 12.3372C118.645 14.7484 120 18.0186 120 21.4286V21.4286ZM59.1964 39.9937C59.1964 43.875 61.4411 46.1223 65.3196 46.1223C69.2679 46.1223 71.5152 43.875 71.5152 39.9937C71.5152 36.1125 69.2732 34.0178 65.325 34.0178C61.4464 34.0178 59.1964 36.1178 59.1964 39.9937ZM53.3518 52.2321H40.0795C33.383 50.4777 18.233 50.933 18.233 64.7544C18.233 69.7902 20.7509 73.3259 24.0857 74.9625C19.883 78.8116 17.8929 80.625 17.8929 83.1964C17.8929 85.0366 18.6402 86.7375 20.8875 87.6857C18.5036 89.9357 17.1375 91.5643 17.1375 94.6286C17.1429 100.004 21.8384 103.125 34.1571 103.125C46.0018 103.125 52.8723 98.7027 52.8723 90.8759C52.8723 81.0535 45.3107 81.4152 27.4875 80.3277L29.7321 76.7303C34.2857 78 49.6045 78.3991 49.6045 65.3652C49.6045 62.2339 48.3107 60.0562 47.0866 58.4893L53.3491 58.0125L53.3518 52.2321ZM75.9429 81.6536L72.4607 81.1768C71.4375 81.0402 71.3705 80.9089 71.3705 79.8134V51.5678H57.2812L56.5339 57.0777C60.7527 58.5643 61.0875 58.3794 61.0875 59.8018V79.8214C61.0875 81.3268 61.0045 81.0482 56.5339 81.6616V87.0348H75.9321L75.9429 81.6536ZM102.857 84.375L101.017 78.383C90.0536 82.5 90.8786 75.0589 90.8786 73.9018V57.6375H101.017V50.8312H91.4223C90.6536 50.8312 90.8866 51.5062 90.8866 40.4839H84.4098C83.6625 47.9036 81.2812 50.8982 75.3027 51.5786V57.6375C80.7857 57.6375 80.6116 57.4098 80.6116 58.3178V76.1491C80.6116 83.8419 83.6732 87.1071 91.7732 87.1071C95.6437 87.1071 99.9295 85.8134 102.857 84.375V84.375Z" fill="#6B0000"/>
</svg>
