<svg width="120" height="120" viewBox="0 0 120 120" fill="none" xmlns="http://www.w3.org/2000/svg">
<path d="M60.0005 0C26.8673 0 0 27.5074 0 61.4405C0 88.5864 17.1919 111.617 41.032 119.741C44.0306 120.31 45.1317 118.408 45.1317 116.785C45.1317 115.32 45.0755 110.481 45.0502 105.347C28.358 109.063 24.8358 98.0976 24.8358 98.0976C22.1063 90.996 18.1734 89.1072 18.1734 89.1072C12.7298 85.2941 18.5841 85.3728 18.5841 85.3728C24.6089 85.8058 27.7814 91.704 27.7814 91.704C33.1331 101.097 41.8181 98.3813 45.2419 96.8112C45.7805 92.8406 47.3353 90.1296 49.0514 88.5955C35.7244 87.0422 21.7148 81.7738 21.7148 58.2317C21.7148 51.5237 24.0586 46.0426 27.8967 41.7398C27.2738 40.1923 25.2202 33.9437 28.478 25.4803C28.478 25.4803 33.5166 23.8291 44.9827 31.7784C49.7686 30.4171 54.9014 29.7346 60.0005 29.711C65.0995 29.7346 70.2366 30.4166 75.0314 31.7784C86.4834 23.8296 91.515 25.4808 91.515 25.4808C94.7808 33.9432 92.7262 40.1928 92.1033 41.7398C95.9503 46.0426 98.2781 51.5237 98.2781 58.2317C98.2781 81.8299 84.2419 87.0259 70.8811 88.547C73.0331 90.4536 74.9508 94.1928 74.9508 99.925C74.9508 108.145 74.8814 114.762 74.8814 116.785C74.8814 118.421 75.9614 120.336 79.0027 119.733C102.83 111.6 120 88.5778 120 61.441C120 27.5074 93.1364 0 60.0005 0ZM22.4723 87.5232C22.3402 87.8285 21.8709 87.9202 21.4439 87.7104C21.0084 87.5102 20.7642 87.0941 20.9048 86.7878C21.0342 86.4734 21.5044 86.3856 21.9384 86.5963C22.3744 86.797 22.6228 87.217 22.4723 87.5232ZM25.4236 90.2198C25.1377 90.4915 24.578 90.3653 24.1983 89.9362C23.8059 89.508 23.7323 88.9349 24.0225 88.6594C24.3178 88.3877 24.8602 88.5149 25.2534 88.943C25.6463 89.3765 25.7222 89.9453 25.4236 90.2198ZM27.4486 93.6701C27.0806 93.9317 26.4797 93.6864 26.108 93.1402C25.7405 92.5939 25.7405 91.9387 26.1159 91.6762C26.4886 91.4136 27.0806 91.6498 27.457 92.1922C27.8236 92.7475 27.8236 93.4027 27.4481 93.6706L27.4486 93.6701ZM30.8723 97.6661C30.5438 98.0376 29.843 97.9378 29.3302 97.4309C28.8056 96.9355 28.6598 96.2328 28.9898 95.8613C29.3227 95.4888 30.0272 95.5934 30.5438 96.0965C31.0641 96.5909 31.2234 97.2989 30.8723 97.6661ZM35.2983 99.0149C35.153 99.4963 34.478 99.7152 33.7987 99.5107C33.12 99.3 32.6761 98.7365 32.813 98.2502C32.9541 97.7654 33.6319 97.5379 34.3163 97.7568C34.9941 97.9661 35.4394 98.5258 35.2983 99.0154V99.0149ZM40.3345 99.5875C40.3514 100.094 39.7753 100.514 39.0619 100.524C38.3447 100.54 37.7639 100.13 37.7559 99.6307C37.7559 99.1195 38.3194 98.7034 39.037 98.6909C39.7505 98.6765 40.3345 99.0835 40.3345 99.5875V99.5875ZM45.2822 99.3931C45.3675 99.8875 44.872 100.395 44.1633 100.531C43.4672 100.661 42.8222 100.356 42.7336 99.8654C42.6473 99.3586 43.1522 98.8507 43.8473 98.7197C44.557 98.5934 45.1917 98.8906 45.2822 99.3931Z" fill="white"/>
</svg>
