<svg width="120" height="120" viewBox="0 0 120 120" fill="none" xmlns="http://www.w3.org/2000/svg">
<path d="M0 0H120V120H0V0Z" fill="#F5DE19"/>
<path d="M80.61 93.75C81.6325 95.8269 83.221 97.5725 85.1924 98.7857C87.1639 99.9989 89.4381 100.63 91.7529 100.607C96.4243 100.607 99.4114 98.2714 99.4114 95.0357C99.4114 91.1786 96.3429 89.7986 91.2 87.5486L88.38 86.34C80.2372 82.8729 74.8372 78.5314 74.8372 69.3514C74.8372 60.8957 81.2657 54.4543 91.35 54.4543C94.6145 54.2186 97.8761 54.9492 100.728 56.555C103.58 58.1608 105.896 60.5708 107.387 63.4843L98.5714 69.12C97.9972 67.6754 96.9975 66.4394 95.7047 65.5761C94.4119 64.7127 92.8873 64.2627 91.3329 64.2857C90.6547 64.2178 89.9698 64.292 89.3219 64.5034C88.674 64.7148 88.0772 65.0589 87.5695 65.5137C87.0619 65.9685 86.6546 66.524 86.3736 67.1449C86.0925 67.7658 85.9439 68.4385 85.9372 69.12C85.9372 72.5015 88.0329 73.8729 92.8714 75.9772L95.6914 77.1857C105.274 81.2957 110.691 85.4829 110.691 94.8986C110.691 105.051 102.716 110.614 92.0057 110.614C87.8327 110.88 83.672 109.933 80.0255 107.886C76.3791 105.84 73.4028 102.782 71.4557 99.0814L80.61 93.75ZM40.7743 94.7272C42.5443 97.8686 44.1557 100.526 48.03 100.526C51.7329 100.526 54.0729 99.0772 54.0729 93.4414V55.0972H65.3486V93.5914C65.3486 105.266 58.4914 110.58 48.51 110.58C44.9818 110.773 41.4778 109.894 38.4587 108.058C35.4395 106.222 33.0465 103.516 31.5943 100.294L40.7743 94.7272Z" fill="black"/>
</svg>
