<svg width="120" height="120" viewBox="0 0 120 120" fill="none" xmlns="http://www.w3.org/2000/svg">
<g clip-path="url(#clip0_408_327)">
<path d="M62.3994 2.39996C29.2619 2.39996 2.39941 29.2625 2.39941 62.4C2.39941 95.5375 29.2619 122.4 62.3994 122.4C95.5369 122.4 122.399 95.5375 122.399 62.4C122.399 29.2625 95.5369 2.39996 62.3994 2.39996ZM47.7119 87.2687H35.5619V48.1687H47.7119V87.2687ZM41.5619 43.3687C37.7244 43.3687 35.2432 40.65 35.2432 37.2875C35.2432 33.8562 37.7994 31.2187 41.7182 31.2187C45.6369 31.2187 48.0369 33.8562 48.1119 37.2875C48.1119 40.65 45.6369 43.3687 41.5619 43.3687ZM92.0869 87.2687H79.9369V65.6C79.9369 60.5562 78.1744 57.1312 73.7807 57.1312C70.4244 57.1312 68.4307 59.45 67.5494 61.6812C67.2244 62.475 67.1432 63.6 67.1432 64.7187V87.2625H54.9869V60.6375C54.9869 55.7562 54.8307 51.675 54.6682 48.1625H65.2244L65.7807 53.5937H66.0244C67.6244 51.0437 71.5432 47.2812 78.0994 47.2812C86.0932 47.2812 92.0869 52.6375 92.0869 64.15V87.2687V87.2687Z" fill="white"/>
</g>
<defs>
<clipPath id="clip0_408_327">
<rect width="120" height="120" fill="white"/>
</clipPath>
</defs>
</svg>
