<svg width="120" height="136" viewBox="0 0 120 136" fill="none" xmlns="http://www.w3.org/2000/svg">
<g clip-path="url(#clip0_407_329)">
<path d="M60 135.218C58.1367 135.218 56.3977 134.721 54.7828 133.851L38.2608 124.038C35.7764 122.671 37.0186 122.174 37.7639 121.926C41.1178 120.808 41.7389 120.559 45.217 118.572C45.5902 118.323 46.087 118.447 46.4592 118.696L59.1305 126.274C59.6273 126.522 60.2484 126.522 60.6211 126.274L110.187 97.5781C110.684 97.3297 110.932 96.8328 110.932 96.2117V38.944C110.932 38.3229 110.684 37.8261 110.187 37.5776L60.6211 9.0059C60.1242 8.75746 59.5031 8.75746 59.1305 9.0059L9.56484 37.5781C9.06797 37.8265 8.81953 38.4476 8.81953 38.9445V96.2117C8.81953 96.7086 9.06797 97.3297 9.56484 97.5781L23.1056 105.404C30.435 109.13 35.0306 104.783 35.0306 100.435V43.9128C35.0306 43.1675 35.6522 42.4221 36.5217 42.4221H42.8573C43.6027 42.4221 44.348 43.0432 44.348 43.9128V100.435C44.348 110.248 39.0061 115.962 29.6892 115.962C26.8322 115.962 24.5963 115.962 18.2611 112.857L5.21719 105.404C1.9875 103.54 0 100.062 0 96.3354V39.0687C0 35.3421 1.9875 31.864 5.21719 30.0003L54.7828 1.3048C57.8883 -0.434262 62.1117 -0.434262 65.2172 1.3048L114.783 30.0003C118.012 31.8636 120 35.3417 120 39.0687V96.3359C120 100.062 118.012 103.541 114.783 105.404L65.2172 134.1C63.6023 134.846 61.7391 135.218 60 135.218V135.218ZM75.2794 95.8386C53.5402 95.8386 49.0683 85.9011 49.0683 77.4537C49.0683 76.7084 49.6894 75.9631 50.5589 75.9631H57.0183C57.7636 75.9631 58.3852 76.46 58.3852 77.2053C59.3789 83.7889 62.2359 87.019 75.4036 87.019C85.8384 87.019 90.3108 84.6589 90.3108 79.069C90.3108 75.8389 89.0686 73.4787 72.795 71.8634C59.2547 70.497 50.8073 67.5157 50.8073 56.7087C50.8073 46.6461 59.2542 40.6836 73.4161 40.6836C89.3166 40.6836 97.1428 46.1492 98.1366 58.0746C98.1366 58.4473 98.0123 58.82 97.7639 59.1926C97.5155 59.4411 97.1428 59.6895 96.7702 59.6895H90.3108C89.6892 59.6895 89.0686 59.1926 88.9439 58.5715C87.4533 51.7395 83.6025 49.5036 73.4161 49.5036C61.988 49.5036 60.6211 53.4786 60.6211 56.4598C60.6211 60.0626 62.2359 61.1801 77.6395 63.1676C92.9194 65.1551 100.124 68.0126 100.124 78.6959C99.9998 89.6276 91.0561 95.8386 75.2794 95.8386V95.8386Z" fill="#539E43"/>
</g>
<defs>
<clipPath id="clip0_407_329">
<rect width="120" height="135.469" fill="white"/>
</clipPath>
</defs>
</svg>
