<svg width="120" height="120" viewBox="0 0 120 120" fill="none" xmlns="http://www.w3.org/2000/svg">
<path d="M98.6639 38.8548C97.3868 38.3628 96.0989 37.907 94.8014 37.4879C95.0194 36.4879 95.22 35.5 95.3981 34.5295C98.3222 18.5921 96.4106 5.75266 89.8814 1.52529C83.6212 -2.52734 73.3833 1.69845 63.0436 11.8021C62.0246 12.7997 61.0282 13.826 60.0553 14.88C59.404 14.1791 58.7413 13.4918 58.0673 12.8185C47.2308 2.01529 36.3689 -2.53786 29.8467 1.70161C23.5922 5.76687 21.7402 17.8369 24.3727 32.9411C24.6346 34.437 24.9303 35.9252 25.2595 37.4042C23.722 37.8948 22.2384 38.4169 20.8186 38.9727C8.11359 43.9463 0 51.7406 0 59.8253C0 68.1753 8.71031 76.5506 21.9431 81.629C23.0159 82.039 24.0977 82.4189 25.1873 82.7685C24.8334 84.3615 24.5193 85.9652 24.2452 87.5779C21.7355 102.42 23.6953 114.205 29.933 118.244C36.3755 122.416 47.1886 118.128 57.7172 107.794C58.5709 106.954 59.4059 106.09 60.2212 105.203C61.2748 106.345 62.3565 107.453 63.465 108.526C73.6641 118.38 83.7366 122.359 89.9681 118.308C96.4045 114.125 98.4966 101.465 95.7806 86.0621C95.5667 84.8555 95.3268 83.6547 95.0611 82.4611C95.8205 82.2085 96.5658 81.9485 97.2923 81.6779C111.049 76.5606 120 68.2869 120 59.8253C120 51.7111 111.624 43.8642 98.6639 38.8548ZM95.6803 76.2148C95.0241 76.4585 94.3509 76.6937 93.6647 76.9227C92.1459 71.5242 90.0966 65.7842 87.5883 59.8532C89.9817 54.0637 91.9523 48.3969 93.4284 43.0337C94.6561 43.4327 95.8472 43.8532 96.9956 44.2969C108.1 48.5895 114.874 54.9353 114.874 59.8253C114.874 65.0337 107.558 71.7953 95.6803 76.2148ZM90.7519 87.18C91.9528 93.9906 92.1239 100.148 91.3284 104.963C90.6141 109.288 89.1769 112.172 87.3994 113.327C83.618 115.785 75.5306 112.591 66.8086 104.163C65.7775 103.165 64.7713 102.135 63.7912 101.074C67.1728 96.9216 70.552 92.0948 73.8502 86.7337C79.6514 86.1558 85.132 85.2106 90.1022 83.9206C90.3469 85.0295 90.5644 86.1169 90.7519 87.18ZM40.9106 112.903C37.2159 114.367 34.2731 114.41 32.4942 113.258C28.7091 110.807 27.1355 101.344 29.2819 88.6516C29.537 87.1518 29.8292 85.6601 30.158 84.1785C35.0733 85.3995 40.5141 86.2774 46.3289 86.8069C49.6495 92.0527 53.1262 96.8742 56.6302 101.096C55.8855 101.905 55.1233 102.694 54.3441 103.461C49.688 108.03 45.0225 111.272 40.9106 112.903ZM23.6016 76.1827C17.7502 73.9369 12.9178 71.0185 9.60563 67.8337C6.62906 64.9721 5.12672 62.1306 5.12672 59.8253C5.12672 54.919 11.6409 48.6611 22.5061 44.4079C23.8247 43.8921 25.2047 43.4053 26.6367 42.9485C28.1386 48.4327 30.1083 54.1669 32.4853 59.9653C30.0773 65.8495 28.0795 71.6753 26.5631 77.2242C25.5685 76.9043 24.581 76.557 23.6016 76.1827ZM29.4037 31.8353C27.1486 18.8948 28.6462 9.13319 32.4155 6.68319C36.4298 4.07371 45.307 7.79424 54.6637 17.1227C55.2739 17.7323 55.8741 18.3544 56.4642 18.9885C52.9777 23.1921 49.5328 27.9779 46.2417 33.1927C40.598 33.78 35.1956 34.7232 30.2288 35.9869C29.9227 34.6112 29.6476 33.2271 29.4037 31.8358V31.8353ZM81.1664 46.1869C79.9932 43.9116 78.7766 41.6649 77.5172 39.4485C81.3459 39.9921 85.0144 40.7137 88.4592 41.5958C87.4252 45.3179 86.1361 49.209 84.6188 53.1985C83.5097 50.8357 82.3586 48.498 81.1664 46.1869ZM60.0577 23.1021C62.422 25.9785 64.7902 29.1895 67.1194 32.6737C62.3944 32.4232 57.6615 32.4221 52.9364 32.6706C55.268 29.2185 57.6562 26.0116 60.0577 23.1021ZM38.8134 46.2263C37.6361 48.5189 36.5066 50.842 35.4258 53.1937C33.9333 49.2185 32.6559 45.3095 31.613 41.5348C35.0367 40.6748 38.6878 39.9716 42.4922 39.4379C41.2188 41.6679 39.9922 43.9312 38.8134 46.2258V46.2263ZM42.6014 80.6221C38.6709 80.1295 34.965 79.4627 31.5422 78.6258C32.6016 74.7837 33.907 70.7916 35.4319 66.7311C36.517 69.0846 37.6512 71.4091 38.8336 73.7027C40.0495 76.0606 41.3086 78.37 42.6014 80.6221ZM60.1992 96.9537C57.7692 94.0106 55.3458 90.7542 52.9791 87.2521C55.2769 87.3532 57.6192 87.4048 60 87.4048C62.4459 87.4048 64.8638 87.3432 67.2436 87.2242C64.9069 90.7895 62.5477 94.0506 60.1992 96.9537ZM84.667 66.5237C86.2711 70.629 87.623 74.6 88.6964 78.3764C85.2173 79.2679 81.4608 79.9858 77.5027 80.519C78.771 78.2614 79.9992 75.9757 81.1866 73.6632C82.3938 71.3127 83.5542 68.9322 84.667 66.5237ZM76.7461 70.7874C74.9284 74.3329 73.0084 77.811 70.9894 81.2164C67.332 81.5072 63.6665 81.6517 60 81.6495C56.2655 81.6495 52.6331 81.519 49.1353 81.2642C47.0635 77.8668 45.107 74.3825 43.2698 70.819H43.2703C41.4418 67.2743 39.7339 63.6529 38.1502 59.9627C39.7298 56.2716 41.4326 52.6485 43.2548 49.1011L43.2544 49.1016C45.0759 45.5533 47.0169 42.084 49.073 38.7011C52.6416 38.3979 56.3011 38.24 59.9995 38.24H60C63.7153 38.24 67.3795 38.3995 70.9472 38.7048C72.9825 42.0826 74.9111 45.54 76.7292 49.0706C78.5575 52.6101 80.2828 56.2155 81.9023 59.8811C80.2995 63.5841 78.5796 67.2218 76.7461 70.7874ZM87.3211 6.51161C91.3392 9.11371 92.902 19.6069 90.3773 33.3674C90.2161 34.2453 90.0352 35.1395 89.8383 36.0463C84.8592 34.7558 79.4531 33.7963 73.793 33.2C70.4958 27.9279 67.0791 23.1348 63.6492 18.9853C64.5481 18.0124 65.4684 17.0647 66.4092 16.1432C75.2686 7.48687 83.5486 4.06898 87.3211 6.51161ZM60 47.7937C65.918 47.7937 70.7156 53.1806 70.7156 59.8253C70.7156 66.47 65.918 71.8569 60 71.8569C54.082 71.8569 49.2844 66.47 49.2844 59.8253C49.2844 53.1806 54.082 47.7937 60 47.7937Z" fill="#00D8FF"/>
</svg>
