<svg width="126" height="120" viewBox="0 0 126 120" fill="none" xmlns="http://www.w3.org/2000/svg">
<g clip-path="url(#clip0_407_325)">
<path d="M83.1515 79.5623C87.5798 79.1039 90.9393 75.2864 90.7865 70.7048C90.6341 66.1237 86.8162 62.4586 82.2351 62.4586H81.9299C77.1955 62.6114 73.5309 66.5817 73.6837 71.3156C73.8365 73.6064 74.7524 75.5916 76.1268 76.9659C70.9349 87.1978 62.9943 94.6805 51.0834 100.942C42.9899 105.217 34.5913 106.745 26.1927 105.676C19.3209 104.76 13.9762 101.706 10.6162 96.6656C5.72993 89.183 5.27196 81.0891 9.39508 72.9956C12.2966 67.1925 16.8773 62.9166 19.7788 60.7786C19.168 58.7934 18.2516 55.4339 17.7937 52.9908C-4.34867 69.0253 -2.05789 90.7101 4.66118 100.942C9.70024 108.577 19.9316 113.311 31.2318 113.311C34.2857 113.311 37.3396 113.006 40.394 112.243C59.9404 108.425 74.7529 96.8184 83.1515 79.5623V79.5623ZM110.028 60.6262C98.4219 47.0348 81.3191 39.5522 61.7727 39.5522H59.3296C57.9552 36.8034 55.0537 34.9706 51.8469 34.9706H51.5413C46.8079 35.1234 43.1432 39.0937 43.2955 43.8281C43.4484 48.4092 47.2659 52.0744 51.8469 52.0744H52.1521C55.5116 51.9216 58.4132 49.7836 59.6348 46.882H62.3835C73.9893 46.882 84.9838 50.2416 94.9101 56.8083C102.545 61.8478 108.043 68.4145 111.096 76.3551C113.692 82.7691 113.54 89.0301 110.791 94.3753C106.515 102.469 99.3383 106.897 89.8705 106.897C83.7623 106.897 77.9596 105.065 74.9052 103.69C73.2257 105.217 70.1713 107.661 68.0334 109.188C74.6001 112.242 81.3191 113.922 87.7326 113.922C102.392 113.922 113.234 105.828 117.358 97.7348C121.786 88.8773 121.48 73.6064 110.028 60.6262V60.6262ZM32.4534 82.1578C32.6062 86.7394 36.4237 90.4041 41.0048 90.4041H41.3104C46.0443 90.2517 49.709 86.2809 49.5562 81.547C49.4038 76.9655 45.5859 73.3008 41.0048 73.3008H40.6996C40.394 73.3008 39.9355 73.3008 39.6309 73.4531C33.3698 63.0689 30.7738 51.7687 31.6902 39.5517C32.3005 30.3891 35.3549 22.448 40.6996 15.8812C45.1279 10.2309 53.6793 7.48219 59.4824 7.32984C75.6688 7.02422 82.5402 27.1819 82.9987 35.2758C84.9838 35.7337 88.3433 36.803 90.6341 37.5666C88.8013 12.8278 73.5309 0 58.8716 0C45.1279 0 32.4534 9.92625 27.4138 24.5864C20.3896 44.1333 24.9707 62.9166 33.5221 77.7295C32.759 78.7983 32.3005 80.4783 32.4534 82.1583V82.1578Z" fill="#764ABC"/>
</g>
<defs>
<clipPath id="clip0_407_325">
<rect width="125.91" height="120" fill="white"/>
</clipPath>
</defs>
</svg>
