<svg width="120" height="90" viewBox="0 0 120 90" fill="none" xmlns="http://www.w3.org/2000/svg">
<g clip-path="url(#clip0_407_323)">
<path d="M114.294 51.5906C110.119 51.6121 106.491 52.6176 103.453 54.104C102.338 51.8962 101.223 49.9293 101.027 48.4865C100.808 46.8037 100.546 45.7762 100.808 43.7653C101.07 41.7543 102.25 38.8907 102.228 38.6723C102.207 38.4539 101.966 37.4264 99.5617 37.4048C97.1575 37.3828 95.0809 37.8637 94.8405 38.4975C94.6 39.1312 94.1411 40.574 93.835 42.06C93.4197 44.2462 89.0266 52.049 86.5131 56.1365C85.7041 54.5414 85.0047 53.1421 84.8514 52.0275C84.633 50.3446 84.3705 49.3171 84.633 47.3062C84.8955 45.2953 86.0758 42.4321 86.0538 42.2132C86.0317 41.9948 85.7913 40.9673 83.387 40.9457C80.9823 40.9237 78.9058 41.4046 78.6658 42.0384C78.4253 42.6726 78.1628 44.1585 77.6603 45.6014C77.1574 47.0442 71.3214 60.0717 69.7914 63.4373C69.1731 64.7996 68.5245 66.1479 67.8461 67.4812C67.8461 67.4812 67.8241 67.5468 67.7584 67.656C67.5453 68.0741 67.3269 68.4895 67.1031 68.902V68.9235C66.775 69.5142 66.4253 70.0603 66.2505 70.0603C66.1192 70.0603 65.8788 68.4867 66.2941 66.3445C67.1683 61.8201 69.2449 54.7818 69.2233 54.5414C69.2233 54.4101 69.6166 53.1862 67.8681 52.552C66.1628 51.9182 65.5511 52.9673 65.3978 52.9673C65.245 52.9673 65.1353 53.339 65.1353 53.339C65.1353 53.339 67.0375 45.4265 61.5072 45.4265C58.0539 45.4265 53.2886 49.2079 50.928 52.6176C48.2444 54.078 45.5632 55.5425 42.8842 57.0112C41.5952 57.7326 40.2616 58.454 39.0156 59.1314C38.928 59.0442 38.8408 58.9345 38.7531 58.8473C32.0645 51.6998 19.6933 46.6504 20.2178 37.0551C20.4147 33.5578 21.6166 24.3773 43.9774 13.23C62.3814 4.1587 77.0266 6.67214 79.562 12.246C83.1902 20.2026 71.7152 34.9785 52.6984 37.1203C45.4417 37.9293 41.6383 35.1314 40.6769 34.0823C39.6714 32.9892 39.5181 32.9235 39.1464 33.1425C38.5347 33.4706 38.928 34.454 39.1464 35.0221C39.715 36.5081 42.0536 39.1312 46.0099 40.4212C49.5072 41.5575 58.0099 42.1917 68.305 38.2134C79.8241 33.7542 88.8297 21.3609 86.185 10.9785C83.5399 0.442924 66.0536 -3.03239 49.5072 2.84714C39.6714 6.34495 29.0045 11.8528 21.3325 19.0223C12.2177 27.5465 10.7749 34.9565 11.365 38.0606C13.4856 49.0767 28.6769 56.2462 34.7533 61.5576C34.4472 61.7324 34.1627 61.8857 33.9227 62.017C30.8842 63.525 19.2995 69.5793 16.4144 75.9839C13.1359 83.2406 16.9394 88.4432 19.4528 89.1421C27.2561 91.3064 35.2778 87.4157 39.5838 80.9892C43.8897 74.5631 43.3652 66.2132 41.3763 62.3882C41.3542 62.3446 41.3327 62.3006 41.2886 62.257C42.0756 61.7981 42.8842 61.3171 43.6713 60.8582C45.1178 60.0031 46.5826 59.1795 48.0649 58.3879C47.3214 60.4209 46.7749 62.8471 46.5128 66.3445C46.1847 70.454 47.8675 75.787 50.0753 77.8851C51.0592 78.8039 52.2175 78.8254 52.9609 78.8254C55.54 78.8254 56.6988 76.6832 57.9883 74.1478C59.5619 71.0442 60.9827 67.4376 60.9827 67.4376C60.9827 67.4376 59.2122 77.1862 64.0211 77.1862C65.7695 77.1862 67.54 74.9128 68.327 73.7545V73.776C68.327 73.776 68.3706 73.7104 68.4583 73.5576C68.6331 73.2735 68.7424 73.0982 68.7424 73.0982V73.0551C69.4417 71.8307 71.0158 69.0548 73.3544 64.4428C76.3708 58.4976 79.278 51.066 79.278 51.066C79.278 51.066 79.5405 52.8801 80.4363 55.8965C80.9613 57.667 82.0535 59.6123 82.9281 61.492C82.2288 62.4759 81.7914 63.022 81.7914 63.022L81.8134 63.044C81.2449 63.787 80.6331 64.5956 79.9553 65.3831C77.5727 68.2242 74.7316 71.4815 74.3378 72.4209C73.8784 73.5356 73.9881 74.3446 74.8628 75.0004C75.4966 75.4814 76.6328 75.5465 77.7916 75.4814C79.9338 75.3281 81.4417 74.8035 82.1847 74.4759C83.3435 74.0606 84.6986 73.4264 85.9661 72.4865C88.3052 70.7596 89.7255 68.2898 89.5947 65.0334C89.5291 63.2409 88.9389 61.4484 88.2175 59.7651C88.4364 59.4595 88.6328 59.1534 88.8517 58.8473C92.5455 53.4482 95.4091 47.5246 95.4091 47.5246C95.4091 47.5246 95.6716 49.3387 96.5674 52.3556C97.0047 53.8856 97.901 55.5468 98.6875 57.164C95.2122 59.984 93.07 63.2625 92.305 65.4046C90.9283 69.3829 91.9989 71.1749 94.0319 71.5903C94.9497 71.7871 96.2613 71.3498 97.2231 70.9345C98.447 70.5412 99.8899 69.8639 101.267 68.8579C103.606 67.1315 105.857 64.7268 105.726 61.4704C105.66 59.984 105.267 58.5192 104.72 57.0984C107.671 55.875 111.475 55.1971 116.327 55.7653C126.731 56.9892 128.786 63.4809 128.392 66.2137C127.999 68.9456 125.813 70.432 125.092 70.8909C124.37 71.3503 124.13 71.5031 124.196 71.8307C124.283 72.3117 124.633 72.2901 125.245 72.2025C126.098 72.0496 130.71 69.9946 130.906 64.9673C131.234 58.5412 125.114 51.525 114.294 51.5906ZM34.0319 78.6506C30.5781 82.41 25.7697 83.8307 23.6931 82.6289C21.4638 81.3389 22.338 75.787 26.5783 71.8092C29.1574 69.3829 32.4799 67.131 34.6877 65.7543C35.1902 65.4482 35.9336 65.0114 36.8299 64.4648C36.9827 64.3771 37.0703 64.3336 37.0703 64.3336L37.5949 64.0054C39.1464 69.6885 37.6605 74.6943 34.0319 78.6506ZM59.1686 61.5576C57.9663 64.4868 55.4528 71.984 53.9228 71.5687C52.6113 71.219 51.8022 65.5359 53.6603 59.9184C54.6002 57.0984 56.5891 53.7323 57.7478 52.4212C59.6275 50.3226 61.7041 49.6228 62.2066 50.4759C62.8408 51.5906 59.9116 59.7215 59.1686 61.5576ZM79.9117 71.4811C79.4088 71.7436 78.9283 71.9184 78.7094 71.7871C78.5566 71.6995 78.9283 71.3498 78.9283 71.3498C78.9283 71.3498 81.5294 68.5523 82.5564 67.2843C83.147 66.5414 83.8459 65.6671 84.5894 64.6832V64.9673C84.5894 68.3118 81.3545 70.5632 79.9117 71.4811ZM95.9116 67.8309C95.5399 67.5684 95.6055 66.6942 96.8514 63.9618C97.3324 62.8907 98.4686 61.0987 100.414 59.3718C100.633 60.0712 100.786 60.749 100.764 61.3828C100.742 65.6015 97.7261 67.1751 95.9116 67.8309Z" fill="#CD6799"/>
</g>
<defs>
<clipPath id="clip0_407_323">
<rect width="120" height="90" fill="white"/>
</clipPath>
</defs>
</svg>
