<svg width="120" height="136" viewBox="0 0 120 136" fill="none" xmlns="http://www.w3.org/2000/svg">
<g clip-path="url(#clip0_407_333)">
<path d="M60 0.0224915L120 33.9623V101.864L60 135.804L0 101.864V33.9623L60 0.0224915Z" fill="white"/>
<path d="M109.291 99.5095L61.9927 126.294V105.464L91.4719 89.2303L109.291 99.5095ZM112.528 96.5887V40.6191L95.2304 50.6034V86.6034L112.528 96.5887V96.5887ZM10.5282 99.5091L57.8265 126.272V105.442L28.3472 89.2303L10.5282 99.5095V99.5091ZM7.29053 96.5887V40.6191L24.5888 50.6034V86.6034L7.29053 96.5887V96.5887ZM9.30615 36.9966L57.8265 9.55453V29.7061L26.7399 46.8L26.4905 46.9359L9.30615 36.9961V36.9966ZM110.491 36.9966L61.9927 9.55406V29.7056L93.0568 46.822L93.3057 46.958L110.491 36.9956V36.9966Z" fill="#8ED6FB"/>
<path d="M57.8264 100.71L28.7545 84.7017V53.0264L57.8264 69.8039V100.71V100.71ZM61.9926 100.71L91.0645 84.7247V53.0264L61.9926 69.8039V100.71V100.71ZM30.7017 49.3584L59.9095 33.3056L89.0939 49.3584L59.9095 66.2039L30.7017 49.3584V49.3584Z" fill="#1C78C0"/>
</g>
<defs>
<clipPath id="clip0_407_333">
<rect width="120" height="135.938" fill="white"/>
</clipPath>
</defs>
</svg>
